<svg xmlns="http://www.w3.org/2000/svg" viewBox="0 0 96 96" role="img" aria-label="Sora">
  <rect width="96" height="96" rx="48" fill="#d8e7ff"/>
  <circle cx="48" cy="46" r="25" fill="#d79a72"/>
  <path d="M23 49c8 14 42 14 50 0v31H23V49Z" fill="#f2b58f"/>
  <path d="M19 43c4-20 19-29 37-24 12 3 19 13 21 27-14-8-23-7-31-4-9 3-17 4-27 1Z" fill="#3f354d"/>
  <circle cx="38" cy="49" r="4" fill="#16151a"/>
  <circle cx="58" cy="49" r="4" fill="#16151a"/>
  <path d="M38 61c7 5 14 5 21 0" fill="none" stroke="#16151a" stroke-width="4" stroke-linecap="round"/>
  <path d="M15 78c14-15 52-15 66 0v18H15V78Z" fill="#8a76dc"/>
</svg>
