<svg xmlns="http://www.w3.org/2000/svg" viewBox="0 0 96 96" role="img" aria-label="Current user">
  <rect width="96" height="96" rx="48" fill="#dff4f7"/>
  <circle cx="48" cy="42" r="24" fill="#251913"/>
  <path d="M24 48c10 8 38 8 48 0v32H24V48Z" fill="#ffd9c7"/>
  <path d="M22 39c5-18 24-27 40-17 8 5 12 11 12 17-16-8-36-9-52 0Z" fill="#0b0d12"/>
  <rect x="28" y="43" width="40" height="9" rx="4.5" fill="#101218"/>
  <path d="M30 52c6 12 30 12 36 0" fill="#c68867"/>
  <path d="M20 76c11-14 45-14 56 0v20H20V76Z" fill="#141821"/>
</svg>
