<svg xmlns="http://www.w3.org/2000/svg" viewBox="0 0 96 96" role="img" aria-label="Mio">
  <rect width="96" height="96" rx="48" fill="#f7cbd2"/>
  <circle cx="48" cy="45" r="25" fill="#4b8f72"/>
  <path d="M24 51c9 13 39 13 48 0v30H24V51Z" fill="#ffc8a6"/>
  <path d="M20 44c3-20 17-29 35-25 12 3 20 12 22 27-18-10-39-10-57-2Z" fill="#2d9b68"/>
  <circle cx="38" cy="48" r="4" fill="#151716"/>
  <circle cx="58" cy="48" r="4" fill="#151716"/>
  <path d="M37 60c7 6 16 6 23 0" fill="none" stroke="#151716" stroke-width="4" stroke-linecap="round"/>
  <path d="M16 77c13-14 51-14 64 0v19H16V77Z" fill="#ef7b88"/>
</svg>
