<svg xmlns="http://www.w3.org/2000/svg" viewBox="0 0 96 96" role="img" aria-label="Aki">
  <rect width="96" height="96" rx="48" fill="#d8d1ff"/>
  <circle cx="48" cy="46" r="25" fill="#7b4a2e"/>
  <path d="M24 50c8 15 40 15 48 0v30H24V50Z" fill="#f5b488"/>
  <path d="M22 38c4-18 20-27 36-22 12 4 18 14 18 27-15-13-38-14-54-5Z" fill="#2a1b17"/>
  <circle cx="38" cy="47" r="4" fill="#1a1514"/>
  <circle cx="58" cy="47" r="4" fill="#1a1514"/>
  <path d="M37 61c7 7 17 7 24 0" fill="none" stroke="#1a1514" stroke-width="4" stroke-linecap="round"/>
  <path d="M16 76c13-14 51-14 64 0v20H16V76Z" fill="#5c72d6"/>
</svg>
