<svg xmlns="http://www.w3.org/2000/svg" viewBox="0 0 96 96" role="img" aria-label="Noa">
  <rect width="96" height="96" rx="48" fill="#dfe7ff"/>
  <circle cx="48" cy="45" r="25" fill="#e7b97f"/>
  <path d="M24 50c8 14 40 14 48 0v30H24V50Z" fill="#ffd4b2"/>
  <path d="M24 39c5-17 21-24 37-17 10 4 15 12 15 23-17-13-36-13-52-6Z" fill="#f4d87e"/>
  <circle cx="38" cy="48" r="4" fill="#171514"/>
  <circle cx="58" cy="48" r="4" fill="#171514"/>
  <path d="M38 61c6 5 14 5 20 0" fill="none" stroke="#171514" stroke-width="4" stroke-linecap="round"/>
  <path d="M16 77c13-14 51-14 64 0v19H16V77Z" fill="#8da2e9"/>
</svg>
